<svg xmlns="http://www.w3.org/2000/svg" viewBox="0 0 512 512">
  <!-- アプリアイコン「一日のアーチ」：朝・昼・夕方の太陽がえがく軌跡と、明日へ伸びる芽 -->
  <defs>
    <linearGradient id="sky" x1="0" y1="0" x2="1" y2="1">
      <stop offset="0" stop-color="#ffe2d2"/><stop offset=".5" stop-color="#fbe3ea"/><stop offset="1" stop-color="#e4dcf7"/>
    </linearGradient>
  </defs>
  <rect width="512" height="512" fill="url(#sky)"/>
  <path d="M132 318 Q256 64 380 318" fill="none" stroke="#ffffff" stroke-width="11" stroke-linecap="round" stroke-dasharray="1 25"/>
  <circle cx="156" cy="256" r="36" fill="#f6a785"/>
  <circle cx="256" cy="168" r="46" fill="#f5c65e"/>
  <circle cx="356" cy="256" r="36" fill="#b095d8"/>
  <path d="M-10 370 C120 322 392 322 522 370 V522 H-10 Z" fill="#cfe9c7"/>
  <g fill="#9fd08f" stroke="#4f8a5c" stroke-width="10" stroke-linecap="round" stroke-linejoin="round">
    <path d="M256 366 V318" fill="none"/>
    <path d="M256 328 C256 302 238 288 212 288 C212 314 230 328 256 328 Z"/>
    <path d="M256 316 C256 292 274 278 300 278 C300 302 282 316 256 316 Z"/>
  </g>
</svg>
